PathFileType	4	(x/y/z)	S05_P20_T24
DataRate	CameraRate	NumFrames	NumMarkers	Units	OrigDataRate	OrigDataStartFrame	OrigNumFrames
240	240	4	50	mm	240	45	356
Frame#	Time	Sternum			R.Acromium			L.Acromium			Top.Head			R.ASIS			L.ASIS			R.PSIS			L.PSIS			R.Great.Tro			L.Great.Tro			R.Iliac.Crest			L.Iliac.Crest			V.Sacral			R.Thigh.Upper.Post			R.Thigh.Lower.Ant			R.Thigh.Lower.Post			R.Thigh.Upper.Ant			R.Knee.Lat			R.Knee.Med			R.Shank.Upper.Post			R.Shank.Lower.Ant			R.Shank.Lower.Post			R.Shank.Upper.Ant			R.Ankle.Lat			R.Ankle.Med			R.Heel.Upper			R.Heel.Med			R.Heel.Lat			R.Toe.Lat			R.Toe.Med			R.Toe.Tip			L.Thigh.Upper.Post			L.Thigh.Lower.Ant			L.Thigh.Lower.Post			L.Thigh.Upper.Ant			L.Knee.Lat			L.Shank.Upper.Post			L.Shank.Lower.Ant			L.Shank.Lower.Post			L.Shank.Upper.Ant			L.Ankle.Lat			L.Ankle.Med			L.Heel.Upper			L.Heel.Med			L.Heel.Lat			L.Toe.Lat			L.Toe.Med			L.Toe.Tip			Cervical.Spine			Back			
		X1	Y1	Z1	X2	Y2	Z2	X3	Y3	Z3	X4	Y4	Z4	X5	Y5	Z5	X6	Y6	Z6	X7	Y7	Z7	X8	Y8	Z8	X9	Y9	Z9	X10	Y10	Z10	X11	Y11	Z11	X12	Y12	Z12	X13	Y13	Z13	X14	Y14	Z14	X15	Y15	Z15	X16	Y16	Z16	X17	Y17	Z17	X18	Y18	Z18	X19	Y19	Z19	X20	Y20	Z20	X21	Y21	Z21	X22	Y22	Z22	X23	Y23	Z23	X24	Y24	Z24	X25	Y25	Z25	X26	Y26	Z26	X27	Y27	Z27	X28	Y28	Z28	X29	Y29	Z29	X30	Y30	Z30	X31	Y31	Z31	X32	Y32	Z32	X33	Y33	Z33	X34	Y34	Z34	X35	Y35	Z35	X36	Y36	Z36	X37	Y37	Z37	X38	Y38	Z38	X39	Y39	Z39	X40	Y40	Z40	X41	Y41	Z41	X42	Y42	Z42	X43	Y43	Z43	X44	Y44	Z44	X45	Y45	Z45	X46	Y46	Z46	X47	Y47	Z47	X48	Y48	Z48	X49	Y49	Z49	X50	Y50	Z50	

45	0.18333	-1091.6	1249	316.79	-1183.6	1516.9	465.5	-1196.9	1521.9	137.3	-1212.7	1812.5	284.29	-1180.3	992.2	449.36	-1156.6	1005	201.82	NaN	NaN	NaN	NaN	NaN	NaN	-1267.6	910.79	505.79	-1227.4	925.36	116.64	-1271.5	1076.8	481.57	-1242.9	1079.9	147.22	-1382.5	979.37	311.39	-1175.5	694.24	525.42	-1105.2	629.18	483.6	-1168.6	604.27	510.28	-1114.6	717.68	497.1	-1172.9	512.23	499.06	-1148.1	494.19	367.74	-1389.9	418.55	463.91	-1403.9	329.9	458.08	-1444.2	370.16	438.56	-1343.9	373.78	480.52	-1501.7	287.13	432.28	-1458.4	290.58	349.55	-1563.6	315.8	359.88	-1577.9	290.81	328.58	-1590.2	294.82	392.25	-1526.9	145.68	456.07	-1479.5	120.8	345.26	NaN	NaN	NaN	-1171.4	689.66	131.62	-1075.7	637.52	158.68	-1141.1	601.01	151.31	-1099.5	723.6	139.37	-1107.6	517.6	160.62	-1172.9	317.89	164.89	-1106.1	259.13	174.77	-1176.8	246.7	184.74	-1106	328.12	159.46	-1153.6	112.28	198.92	-1121.8	129.12	285.55	-1214.3	66.124	253.23	-1202.2	41.032	285.43	-1213.6	40.09	225.34	-1032.6	39.135	164.23	-1005.5	49.338	282.93	-943.29	60.397	225.65	-1248.6	1554.7	308.58	-1367.4	1280.3	313.57
46	0.1875	-1086.5	1249.5	316.71	-1178.3	1517.5	465.22	-1191.3	1522.5	137.02	-1207.2	1813.2	283.98	-1175.2	993.05	449.05	-1151.9	1005.7	201.53	NaN	NaN	NaN	NaN	NaN	NaN	-1262	911.5	505.72	-1222.9	925.99	116.44	-1266.6	1077.5	481.35	-1237.9	1080.6	146.98	-1377.6	980.03	311.24	-1166.1	696.11	525.3	-1095.3	632.36	483.08	-1158	606.33	510.16	-1106.1	720.71	496.52	-1160.8	514.46	498.84	-1136.8	496.57	367.3	-1377.5	420.71	463.84	-1391.1	332.03	457.78	-1432.2	372.88	438.55	-1331.5	375.92	480.23	-1489	289.33	432.06	-1446.5	293.4	349.08	-1551.9	317.92	360	-1566.2	292.87	328.7	-1578.1	296.72	392.46	-1513.6	148.09	455.61	-1466.7	123.61	344.52	NaN	NaN	NaN	-1168.2	690.01	131.5	-1072.7	637.32	158.49	-1138.3	601.19	151.17	-1096.1	723.53	139.19	-1105.3	517.52	160.52	-1171.8	318.04	164.88	-1105.2	259	174.75	-1175.9	246.9	184.77	-1104.8	327.94	159.4	-1153.4	112.4	198.97	-1121.5	129.16	285.65	-1214.2	66.276	253.37	-1202.1	41.12	285.48	-1213.6	40.214	225.35	-1032.6	39.189	164.22	-1005.5	49.236	282.95	-943.22	60.26	225.65	-1243.2	1555.5	308.23	-1362.2	1281.2	312.98
47	0.19167	-1081.4	1250	316.66	-1173	1518.3	464.97	-1185.8	1523.2	136.76	-1201.6	1814	283.72	-1170.1	993.97	448.75	-1147.2	1006.5	201.24	NaN	NaN	NaN	NaN	NaN	NaN	-1256.3	912.3	505.66	-1218.5	926.63	116.27	-1261.7	1078.4	481.12	-1233	1081.3	146.74	-1372.8	980.78	311.11	-1156.9	698.16	525.11	-1085.5	635.7	482.51	-1147.6	608.57	509.96	-1097.6	723.86	495.9	-1148.9	516.86	498.55	-1125.3	499.14	366.83	-1365	422.71	463.71	-1378.3	334	457.44	-1420.1	375.32	438.51	-1318.9	377.97	479.88	-1476.1	291.23	431.8	-1434.4	295.98	348.56	-1540	319.63	360.09	-1554.4	294.5	328.8	-1565.9	298.16	392.65	-1499.8	150.16	455.11	-1453.4	126.2	343.72	NaN	NaN	NaN	-1165	690.38	131.41	-1069.9	637.12	158.34	-1135.7	601.38	151.06	-1092.8	723.47	139.06	-1103.2	517.44	160.46	-1170.7	318.21	164.9	-1104.4	258.88	174.74	-1175	247.1	184.81	-1103.6	327.79	159.36	-1153.2	112.53	199.02	-1121.3	129.2	285.75	-1214.2	66.441	253.52	-1202.1	41.223	285.53	-1213.5	40.34	225.37	-1032.5	39.244	164.21	-1005.4	49.14	282.96	-943.16	60.135	225.65	-1237.8	1556.3	307.91	-1357.1	1282.1	312.39
48	0.19583	-1076.4	1250.7	316.64	-1167.8	1519	464.74	-1180.2	1523.9	136.52	-1196.1	1814.8	283.51	-1165	994.96	448.45	-1142.4	1007.2	200.95	NaN	NaN	NaN	NaN	NaN	NaN	-1250.7	913.21	505.62	-1214.1	927.29	116.13	-1256.7	1079.3	480.89	-1228.1	1082	146.52	-1368	981.59	310.99	-1147.7	700.37	524.86	-1075.7	639.19	481.9	-1137.2	610.98	509.71	-1089.2	727.15	495.26	-1137	519.42	498.22	-1113.9	501.9	366.34	-1352.6	424.56	463.54	-1365.4	335.82	457.06	-1407.9	377.48	438.43	-1306.3	379.93	479.49	-1463	292.82	431.5	-1422.2	298.32	347.99	-1528	320.95	360.16	-1542.4	295.69	328.87	-1553.5	299.15	392.82	-1485.7	151.91	454.57	-1439.6	128.55	342.86	NaN	NaN	NaN	-1162	690.76	131.35	-1067.1	636.93	158.24	-1133.1	601.58	150.98	-1089.5	723.41	138.96	-1101.1	517.38	160.42	-1169.7	318.37	164.93	-1103.6	258.79	174.73	-1174.2	247.3	184.86	-1102.5	327.66	159.34	-1153	112.66	199.08	-1121.1	129.24	285.84	-1214.2	66.618	253.67	-1202.1	41.342	285.6	-1213.5	40.471	225.38	-1032.5	39.3	164.21	-1005.4	49.049	282.98	-943.1	60.019	225.67	-1232.4	1557.1	307.6	-1351.9	1283.1	311.8
